<?xml version="1.0" standalone="no"?><!DOCTYPE svg PUBLIC "-//W3C//DTD SVG 1.1//EN" "http://www.w3.org/Graphics/SVG/1.1/DTD/svg11.dtd"><svg t="1590935470489" class="icon" viewBox="0 0 1024 1024" version="1.1" xmlns="http://www.w3.org/2000/svg" p-id="4009" xmlns:xlink="http://www.w3.org/1999/xlink" width="200" height="200"><defs><style type="text/css"></style></defs><path d="M139.264 512c0.064 115.712-0.064 231.424 0.064 347.072 0.064 31.68 1.152 32.384 32.448 26.624 105.216-19.52 210.304-39.424 315.584-58.304 21.312-3.776 30.976-11.84 29.76-35.264-1.984-37.888 0.128-75.968-0.704-113.92-0.384-19.136 7.488-26.176 26.112-25.92 89.344 1.344 73.216-10.496 74.432 70.464 0.832 50.048-0.384 100.16 0.384 150.208 0.32 18.176-7.36 26.048-24.576 29.632-138.56 28.8-276.928 58.432-415.488 87.104-63.36 13.12-126.464-31.488-136.832-96.192-2.944-18.624-4.352-37.76-4.352-56.64-0.32-215.808-0.32-431.68-0.064-647.488 0.064-18.944 1.536-37.952 4.224-56.704C49.728 66.048 113.792 20.8 179.712 34.432c136 28.16 271.872 57.152 408 84.992 21.312 4.352 30.592 12.8 29.888 35.968-1.536 54.336-1.152 108.736-0.128 163.136 0.384 21.312-7.488 29.184-28.672 28.8-86.72-1.408-71.04 9.344-72-70.336-0.896-75.136-0.192-75.008-74.048-88.832-89.856-16.832-179.712-33.856-269.568-50.752-32.768-6.144-33.856-5.248-33.856 27.584-0.064 115.648-0.064 231.36-0.064 347.008z m664.64 54.336c-13.056-7.744-22.656-5.056-31.744-5.12-113.856-0.192-227.712-0.832-341.568 0.448-26.496 0.256-34.368-8.448-33.6-34.176 2.304-76.288-9.6-66.304 65.536-66.688 101.76-0.448 203.52 0 305.344-0.256 9.024 0 18.752 2.88 30.592-5.504-21.696-21.76-42.048-43.456-63.872-63.616-14.528-13.44-15.232-22.976-0.512-37.76 52.544-52.8 52.032-53.312 105.28-0.064 45.12 45.12 89.728 90.816 135.616 135.168 17.856 17.216 17.28 30.144-0.128 47.232-56.768 55.488-112.96 111.488-168.256 168.384-15.424 15.872-25.92 15.232-39.552-0.768-11.136-13.12-23.808-25.024-36.48-36.736-11.648-10.688-10.624-19.52 0.576-30.016 24.256-22.72 47.808-46.272 72.768-70.528z" p-id="4010" fill="#8a8a8a"></path></svg>